<svg id="Layer_1" data-name="Layer 1" xmlns="http://www.w3.org/2000/svg" viewBox="0 0 88.19 100.55"><defs><style>.cls-1{fill:#ed1c24;}</style></defs><title>siba</title><path class="cls-1" d="M174.12,172.44a.82.82,0,0,1-.59-.77c-.19-1.33-.67-2.08-1.42-2.29a.67.67,0,0,0-.9.66c-.17,1.57,2.13,4.2,5.17,7.56,3.29,3.63,5.69,8.76,5.26,13.09-.8,7.85-6.46,12.29-12.75,6a30.51,30.51,0,0,1-8.86-21.6c0-.16.17-.15.51.19a36.85,36.85,0,0,0,6.28,5,1.18,1.18,0,0,1,.53,1c0,2,.62,4.61,1.81,5.51.69.52,1.2.4,1.32-.73S168,180.8,165,176.38s-4.46-7.78-4.38-10.08c.12-3.45,4.56-7.28,12-6.81s11.48,7.19,10.78,14.19c0,.41-.3.72-.75.62C179.18,173.68,177.46,173.31,174.12,172.44Z" transform="translate(-160.01 -159.45)"/><path class="cls-1" d="M183.07,205.86a1.27,1.27,0,0,1-.69-1.21q2.11-21.64,4.17-43.28a.58.58,0,0,1,.56-.55c3.8.39,5.7.6,9.5,1a.66.66,0,0,1,.63.7q-1.39,22.72-2.86,45.43a.76.76,0,0,1-.83.71A38.09,38.09,0,0,1,183.07,205.86Z" transform="translate(-160.01 -159.45)"/><path class="cls-1" d="M199.44,162.92c0-.44.26-.73.65-.68,4.12.46,6.18.7,10.29,1.14,7.18.76,11.44,6.16,11.6,10.51.12,3.15.32,8.11-5.68,10.64v.11a8,8,0,0,1,6.51,7.82c.09,2.7.65,13.36-13,15.87a42.34,42.34,0,0,1-12.27.76.62.62,0,0,1-.61-.73Q198.24,185.64,199.44,162.92Zm9.44,36.1c0,.24.12.41.44.37a2.16,2.16,0,0,0,1.92-2c0-2.5,0-3.76,0-6.26,0-1-.91-1.52-1.89-1.45-.25,0-.37.21-.38.51C209,193.72,208.94,195.49,208.88,199Zm.28-18.78a.4.4,0,0,0,.41.42,1.7,1.7,0,0,0,1.73-1.76c0-2,0-3.06,0-5.1a1.66,1.66,0,0,0-1.65-1.6.34.34,0,0,0-.41.35C209.23,175.61,209.21,177.15,209.17,180.24Z" transform="translate(-160.01 -159.45)"/><path class="cls-1" d="M240.73,165.44a.74.74,0,0,1,.73.38c3.42,8.27,5,11,6.73,12.83a3.18,3.18,0,0,1-.5,1.4,45.07,45.07,0,0,1-6.7,10.12c-.28.34-.58.53-.64.37-.53-1.66-.8-2.53-1.35-4.35-.06-.14-.27-.08-.53.12-1.09.88-1.65,1.3-2.8,2.1a1.18,1.18,0,0,0-.45.74c-.24,2.69-.36,4.08-.6,6.93a2,2,0,0,1-.67,1.06,44.59,44.59,0,0,1-9.63,6.29c-.55.28-.88.06-.77-.53,2-12.43,3.91-24.89,6-37.32a.64.64,0,0,1,.62-.5C234.39,165.31,236.51,165.39,240.73,165.44ZM237,179.33c-.14-.47-.27-.77-.43-.7s-.24.38-.31,1c-.17,1.59-.26,2.4-.43,4.07,0,.23.08.37.34.21,1.69-1,1.82-1.13,1.75-1.42C237.52,181.28,237.33,180.64,237,179.33Z" transform="translate(-160.01 -159.45)"/><text x="-160.01" y="-159.45"></text></svg>